<svg height="512pt" viewBox="0 -8 512 512" width="512pt" xmlns="http://www.w3.org/2000/svg"><path d="m247.988281 130.484375-21.386719-21.382813 10.714844-10.71875 10.671875 10.667969 34.707031-34.707031 10.71875 10.714844zm0 0"/><path d="m352.164062 112.191406h112.191407v15.15625h-112.191407zm0 0"/><path d="m352.164062 184.3125h112.191407v15.15625h-112.191407zm0 0"/><path d="m352.164062 152.257812h16.027344v15.15625h-16.027344zm0 0"/><path d="m352.164062 256.433594h112.191407v15.15625h-112.191407zm0 0"/><path d="m384.21875 224.382812h16.027344v15.15625h-16.027344zm0 0"/><path d="m384.21875 80.136719h16.027344v15.15625h-16.027344zm0 0"/><path d="m512 47.644531v-47.644531h-512v399.808594h176.300781v48.953125h-32.054687v47.210937h63.671875v-15.15625h-48.515625v-16.898437h193.195312v16.898437h-120.640625v15.15625h135.796875v-47.210937h-32.054687v-48.953125h176.300781v-328.121094h-15.15625v232.832031h-296.9375v15.152344h296.9375v64.984375h-481.6875v-64.984375h160.707031v-15.152344h-160.707031v-289.363281h481.6875v32.488281zm-191.457031 352.164063v48.953125h-129.085938v-48.953125zm0 0"/><path d="m247.988281 344.585938h16.023438v15.15625h-16.023438zm0 0"/><path d="m48.082031 104.175781v175.429688h191.453125v-106.085938c5.351563 1.261719 10.859375 1.910157 16.464844 1.910157 39.527344 0 71.6875-32.160157 71.6875-71.6875 0-39.527344-32.160156-71.6875-71.6875-71.6875s-71.6875 32.160156-71.6875 71.6875c0 .144531.007812.289062.007812.433593zm79.265625 63.238281h32.925782v16.898438h-32.925782zm32.925782-48.082031v32.925781h-32.925782v-32.925781zm95.726562-72.121093c31.171875 0 56.53125 25.359374 56.53125 56.53125 0 31.171874-25.359375 56.53125-56.53125 56.53125-6.871094 0-13.542969-1.210938-19.875-3.613282-19.753906-7.351562-33.636719-24.945312-36.234375-45.914062v-.011719c-.273437-2.207031-.421875-4.625-.421875-6.992187 0-31.171876 25.359375-56.53125 56.53125-56.53125zm-69.984375 72.121093c4.707031 21.332031 18.792969 39.226563 38.367187 48.761719v96.355469h-161.144531v-145.117188h48.953125v80.136719h63.234375v-80.136719zm0 0"/><path d="m111.753906 216.367188h64.109375v15.15625h-64.109375zm0 0"/><path d="m384.21875 152.257812h16.027344v15.15625h-16.027344zm0 0"/><path d="m352.164062 224.382812h16.027344v15.15625h-16.027344zm0 0"/><path d="m352.164062 80.136719h16.027344v15.15625h-16.027344zm0 0"/></svg>