<svg height="480pt" viewBox="-12 0 480 480" width="480pt" xmlns="http://www.w3.org/2000/svg"><path d="m400 240v-8c4.417969 0 8-3.582031 8-8 0-30.929688-25.070312-56-56-56s-56 25.070312-56 56c0 4.417969 3.582031 8 8 8v8c0 26.507812 21.492188 48 48 48s48-21.492188 48-48zm-48-56c18.367188.023438 34.367188 12.527344 38.824219 30.34375-9.304688-3.226562-18.171875-7.589844-26.398438-13-3.171875-2.113281-7.394531-1.691406-10.089843 1-5.648438 5.648438-25.070313 10.222656-41.296876 12.527344 4.261719-18.078125 20.386719-30.855469 38.960938-30.871094zm0 88c-8.496094.035156-16.65625-3.328125-22.664062-9.335938-6.007813-6.007812-9.371094-14.167968-9.335938-22.664062v-9.960938c14.097656-1.691406 27.78125-5.867187 40.425781-12.328124 7.457031 4.523437 15.359375 8.277343 23.574219 11.210937v11.078125c0 17.671875-14.328125 32-32 32zm0 0"/><path d="m376 288h-48c-39.746094.042969-71.957031 32.253906-72 72v112c0 4.417969 3.582031 8 8 8h176c4.417969 0 8-3.582031 8-8v-112c-.042969-39.746094-32.253906-71.957031-72-72zm-1.601562 53.351562-10.78125-2.695312 8.085937-16.167969zm-11.34375-37.351562-11.054688 22.113281-11.054688-22.113281zm-22.671876 34.65625-10.78125 2.695312 2.695313-18.863281zm-68.382812 21.34375c.03125-27.296875 19.742188-50.597656 46.65625-55.152344l-6.578125 46.015625c-.328125 2.296875.355469 4.625 1.875 6.378907 1.519531 1.75 3.726563 2.757812 6.046875 2.757812.65625 0 1.308594-.082031 1.945312-.238281l22.054688-5.523438v109.761719h-40v-104h-16v104h-16zm160 104h-16v-104h-16v104h-40v-109.761719l22.054688 5.523438c.636718.15625 1.289062.238281 1.945312.238281 2.320312 0 4.527344-1.007812 6.046875-2.757812 1.519531-1.753907 2.203125-4.082032 1.875-6.378907l-6.578125-46.015625c26.914062 4.554688 46.625 27.855469 46.65625 55.152344zm0 0"/><path d="m144 240v-8c4.417969 0 8-3.582031 8-8 0-30.929688-25.070312-56-56-56s-56 25.070312-56 56c0 4.417969 3.582031 8 8 8v8c0 26.507812 21.492188 48 48 48s48-21.492188 48-48zm-48-56c18.570312.019531 34.691406 12.796875 38.953125 30.871094-16.226563-2.304688-35.648437-6.878906-41.296875-12.527344-2.695312-2.691406-6.917969-3.113281-10.089844-1-8.226562 5.410156-17.09375 9.773438-26.398437 13 4.460937-17.820312 20.464843-30.324219 38.832031-30.34375zm22.695312 78.632812c-9.164062 9.152344-22.933593 11.890626-34.902343 6.9375-11.964844-4.953124-19.777344-16.621093-19.792969-29.570312v-11.078125c8.214844-2.929687 16.117188-6.683594 23.574219-11.203125 12.644531 6.460938 26.332031 10.628906 40.425781 12.320312v9.960938c.011719 8.476562-3.332031 16.613281-9.304688 22.632812zm0 0"/><path d="m120 288h-48c-39.746094.042969-71.9570312 32.253906-72 72v112c0 4.417969 3.582031 8 8 8h176c4.417969 0 8-3.582031 8-8v-112c-.042969-39.746094-32.253906-71.957031-72-72zm-1.601562 53.351562-10.78125-2.695312 8.085937-16.167969zm-11.34375-37.351562-11.054688 22.113281-11.054688-22.113281zm-22.671876 34.65625-10.78125 2.695312 2.695313-18.863281zm-68.382812 21.34375c.03125-27.296875 19.742188-50.597656 46.65625-55.152344l-6.578125 46.015625c-.328125 2.296875.355469 4.625 1.875 6.378907 1.519531 1.75 3.726563 2.757812 6.046875 2.757812.65625 0 1.308594-.082031 1.945312-.238281l22.054688-5.523438v109.761719h-40v-104h-16v104h-16zm160 104h-16v-104h-16v104h-40v-109.761719l22.054688 5.523438c.636718.15625 1.289062.238281 1.945312.238281 2.320312 0 4.527344-1.007812 6.046875-2.757812 1.519531-1.753907 2.203125-4.082032 1.875-6.378907l-6.578125-46.015625c26.914062 4.554688 46.625 27.855469 46.65625 55.152344zm0 0"/><path d="m168 232h40v16h-40zm0 0"/><path d="m164.417969 279.160156 7.15625-14.3125 32 16-7.15625 14.308594zm0 0"/><path d="m164.425781 200.84375 32-16 7.152344 14.308594-31.996094 16zm0 0"/><path d="m240 232h40v16h-40zm0 0"/><path d="m244.421875 280.84375 31.996094-16 7.15625 14.3125-32 16zm0 0"/><path d="m244.425781 199.15625 7.15625-14.3125 32 16-7.15625 14.3125zm0 0"/><path d="m99.199219 127.265625-3.023438 15.199219c-.671875 3.34375.855469 6.746094 3.800781 8.472656 2.941407 1.726562 6.65625 1.394531 9.246094-.824219l29.175782-25.042969c36.929687-8.335937 61.601562-32.6875 61.601562-61.070312 0-35.289062-39.480469-64-88-64s-88 28.710938-88 64c0 32.191406 32.335938 58.777344 75.199219 63.265625zm12.800781-111.265625c39.695312 0 72 21.527344 72 48 0 20.800781-20.9375 39.632812-50.910156 45.839844-1.324219.28125-2.554688.886718-3.585938 1.761718l-13.121094 11.238282.28125-1.375c.472657-2.316406-.101562-4.726563-1.574218-6.578125-1.46875-1.851563-3.683594-2.960938-6.050782-3.023438-38.0625-1.023437-69.039062-22.503906-69.039062-47.863281 0-26.472656 32.304688-48 72-48zm0 0"/><path d="m356 127.351562-3.886719 23.335938c-.566406 3.429688 1.140625 6.832031 4.230469 8.417969 3.089844 1.589843 6.851562 1.003906 9.3125-1.449219l33.9375-33.945312c33.839844-9.390626 56.40625-33.183594 56.40625-59.710938 0-35.289062-39.480469-64-88-64s-88 28.710938-88 64c0 32.488281 32.703125 59.136719 76 63.351562zm12-111.351562c39.695312 0 72 21.527344 72 48 0 19.664062-18.695312 37.664062-46.527344 44.800781-1.390625.355469-2.65625 1.074219-3.671875 2.085938l-17.800781 17.800781 1.238281-7.472656c.382813-2.289063-.25-4.628906-1.726562-6.414063-1.480469-1.789062-3.664063-2.84375-5.984375-2.898437-38.328125-.871094-69.527344-22.367188-69.527344-47.902344 0-26.472656 32.304688-48 72-48zm0 0"/><path d="m328 40h80v16h-80zm0 0"/><path d="m328 72h80v16h-80zm0 0"/><path d="m104 56h16v16h-16zm0 0"/><path d="m136 56h16v16h-16zm0 0"/><path d="m72 56h16v16h-16zm0 0"/></svg>