<svg height="511pt" viewBox="0 0 511.99995 511" width="511pt" xmlns="http://www.w3.org/2000/svg"><path d="m321.386719 157.894531 20.101562 3.546875c.160157 1.078125.351563 2.164063.5625 3.234375l-17.671875 10.207031c-5.792968 3.34375-7.785156 10.789063-4.441406 16.582032l10.589844 18.347656c3.34375 5.792969 10.789062 7.789062 16.582031 4.441406l17.683594-10.207031c.824219.726563 1.660156 1.433594 2.515625 2.117187l-6.980469 19.171876c-2.285156 6.296874.96875 13.28125 7.253906 15.566406 19.878907 7 20.398438 7.980468 24.070313 7.980468 4.847656 0 9.5625-2.960937 11.394531-7.988281l6.980469-19.183593c1.101562.019531 2.1875.019531 3.285156 0l6.984375 19.183593c2.292969 6.289063 9.242187 9.554688 15.566406 7.253907l19.898438-7.246094c6.339843-2.300782 9.539062-9.296875 7.261719-15.566406l-6.980469-19.171876c.847656-.683593 1.691406-1.390624 2.507812-2.117187l17.683594 10.207031c5.800781 3.347656 13.238281 1.351563 16.582031-4.441406l10.597656-18.347656c3.347657-5.804688 1.351563-13.238282-4.453124-16.582032l-17.660157-10.207031c.210938-1.070312.402344-2.15625.5625-3.234375l20.101563-3.546875c5.882812-1.039062 10.023437-6.175781 10.023437-11.960937 0-.695313-.058593-1.398438-.179687-2.105469l-3.675782-20.855469c-.566406-3.191406-2.339843-5.984375-4.988281-7.835937-2.660156-1.867188-5.875-2.582031-9.078125-2.015625l-20.089844 3.546875c-.535156-.96875-1.078124-1.914063-1.652343-2.851563l13.117187-15.636718c2.085938-2.480469 3.074219-5.632813 2.792969-8.855469-.285156-3.234375-1.804687-6.15625-4.285156-8.242188l-16.230469-13.621093c-5.128906-4.304688-12.804688-3.628907-17.105469 1.5l-13.109375 15.625c-1.027344-.402344-2.054687-.773438-3.101562-1.128907v-20.398437c0-6.691406-5.441406-12.140625-12.140625-12.140625h-21.179688c-6.691406 0-12.140625 5.449219-12.140625 12.140625v20.398437c-1.039062.355469-2.074218.726563-3.09375 1.128907l-13.117187-15.625c-4.300781-5.128907-11.980469-5.804688-17.105469-1.5l-16.222656 13.621093c-5.128906 4.300781-5.804688 11.96875-1.492188 17.097657l13.109375 15.636718c-.566406.9375-1.117187 1.882813-1.644531 2.851563l-20.097656-3.546875c-6.574219-1.164063-12.894532 3.214844-14.066406 9.851562l-3.675782 20.855469c-1.171875 6.625 3.269532 12.902344 9.851563 14.066406zm8.191406-29.378906 22.742187 4.007813c3.425782.605468 6.820313-1.199219 8.21875-4.382813 1.621094-3.644531 3.636719-7.140625 6.015626-10.375 2.054687-2.8125 1.925781-6.660156-.3125-9.320313l-14.851563-17.703124 11.679687-9.792969 14.839844 17.691406c2.234375 2.660156 6.003906 3.457031 9.128906 1.914063 3.585938-1.761719 7.375-3.140626 11.261719-4.097657 3.375-.828125 5.753907-3.859375 5.753907-7.335937v-23.09375h15.234374v23.09375c0 3.476562 2.378907 6.507812 5.761719 7.335937 3.878907.957031 7.679688 2.335938 11.265625 4.097657 3.121094 1.542968 6.890625.746093 9.128906-1.914063l14.839844-17.691406 11.667969 9.792969-14.84375 17.703124c-2.234375 2.660157-2.367187 6.507813-.3125 9.320313 2.367187 3.234375 4.394531 6.730469 6.007813 10.375 1.410156 3.183594 4.792968 4.988281 8.21875 4.382813l22.742187-4.007813 2.648437 15.011719-22.761718 4.007812c-3.425782.605469-5.992188 3.476563-6.226563 6.945313-.261719 4.007812-.957031 7.988281-2.0625 11.816406-.96875 3.335937.472657 6.902344 3.476563 8.644531l19.996094 11.546875-7.617188 13.1875-20.007812-11.546875c-3.011719-1.742187-6.820313-1.199218-9.230469 1.3125-2.777344 2.890625-5.871094 5.488282-9.1875 7.714844-2.890625 1.933594-4.078125 5.59375-2.890625 8.855469l7.898437 21.703125-14.316406 5.21875-7.898437-21.710938c-1.226563-3.363281-4.597657-5.308594-7.898438-4.925781-4.011719.421875-8.019531.421875-12.019531 0-3.46875-.375-6.710938 1.660156-7.898438 4.925781l-7.902343 21.710938-14.324219-5.21875 7.898437-21.703125c1.1875-3.261719 0-6.921875-2.882812-8.855469-3.324219-2.226562-6.417969-4.824219-9.1875-7.714844-2.410156-2.511718-6.214844-3.054687-9.230469-1.3125l-20.007813 11.546875-7.617187-13.1875 19.988281-11.546875c3.011719-1.742187 4.445313-5.308594 3.476563-8.644531-1.097657-3.828125-1.792969-7.796875-2.066407-11.816406-.230468-3.46875-2.800781-6.339844-6.226562-6.945313l-22.75-4.007812zm0 0"/><path d="m411.671875 201.992188c28.734375 0 52.097656-23.363282 52.097656-52.097657 0-28.722656-23.363281-52.089843-52.097656-52.089843-28.726563 0-52.097656 23.367187-52.097656 52.089843 0 28.734375 23.371093 52.097657 52.097656 52.097657zm0-89.074219c20.390625 0 36.984375 16.585937 36.984375 36.976562 0 20.402344-16.59375 36.984375-36.984375 36.984375s-36.988281-16.582031-36.988281-36.984375c0-20.390625 16.597656-36.976562 36.988281-36.976562zm0 0"/><path d="m411.671875 178.660156c15.820313 0 28.742187-12.773437 28.742187-28.765625 0-25.761719-31.15625-38.25-49.074218-20.332031-17.910156 17.910156-5.402344 49.097656 20.332031 49.097656zm0-42.40625c7.472656 0 13.632813 6.019532 13.632813 13.640625 0 12.058594-14.652344 18.308594-23.273438 9.652344-8.460938-8.425781-2.632812-23.292969 9.640625-23.292969zm0 0"/><path d="m511.796875 362.945312-4.429687-25.109374c-1.25-7.105469-8-11.863282-15.144532-10.609376l-25.277344 4.453126c-.957031-1.792969-1.976562-3.546876-3.054687-5.269532l16.503906-19.664062c4.632813-5.523438 3.910157-13.785156-1.613281-18.429688l-19.523438-16.382812c-5.523437-4.632813-13.792968-3.90625-18.429687 1.613281l-16.492187 19.65625c-1.882813-.765625-3.796876-1.460937-5.734376-2.085937v-25.660157c0-7.214843-5.863281-13.078125-13.066406-13.078125h-25.5c-7.203125 0-13.078125 5.863282-13.078125 13.078125v25.660157c-1.933593.625-3.835937 1.320312-5.722656 2.085937l-16.503906-19.65625c-4.632813-5.519531-12.894531-6.246094-18.414063-1.613281l-19.527344 16.382812c-5.550781 4.65625-6.253906 12.894532-1.613281 18.429688l16.503907 19.664062c-1.085938 1.722656-2.105469 3.476563-3.050782 5.269532l-25.28125-4.453126c-7.050781-1.257812-13.871094 3.425782-15.152344 10.609376l-1.167968 6.609374c-2.378906-.988281-4.785156-1.902343-7.222656-2.75l-26.386719-27.523437c18.246093-14.1875 36.449219-35.605469 42.546875-58.902344 20.84375-4.148437 36.601562-22.585937 36.601562-44.632812 0-21.226563-14.597656-39.101563-34.296875-44.109375v-20.671875h7.15625c7.242188 0 13.136719-5.886719 13.136719-13.128907v-79.464843c0-13.679688-7.34375-25.679688-18.296875-32.257813v-7.417968c0-7.34375-6.832031-13.085938-15.566406-13.085938h-160.085938c-17.457031 0-33.972656 4.746094-46.496093 13.371094-13.390626 9.21875-20.765626 21.75-20.765626 35.292968v81.898438c0 11.042969 10.589844 19.808594 24.464844 20.617188v16.058593c-17.640625 6.257813-30.308594 23.121094-30.308594 42.890625 0 20.523438 13.644532 37.902344 32.34375 43.5625 1.25 5.078125 3.0625 10.15625 5.441407 15.203125 1.78125 3.78125 6.277343 5.402344 10.054687 3.628907 3.777344-1.785157 5.398438-6.285157 3.617188-10.066407-9.332032-19.765625-4.847656-25.648437-6.035156-82.726562 0-25.046875 0-1.136719 0-28.480469 3.445312-.515625 71.613281 5.539062 139.941406-41.8125.886718 19.957031 17.390625 35.917969 37.570312 35.917969h8.714844c0 100.316406 1.101562 97.394531-3.0625 109.757812-6.515625 19.253907-22.515625 36.574219-39.664062 49.519531-.011719 0-.011719 0-.011719 0-6.71875 5.128907-15.253907 10.621094-23.464844 14.808594-17.871094 9.179688-26.808594 8.828125-26.910156 8.847656-14.890625 0-49.386719-18.214843-71.351563-42.730468-2.792968-3.109375-7.566406-3.375-10.671875-.582032-3.113281 2.78125-3.375 7.554688-.582031 10.667969 6.476562 7.226563 13.84375 13.894531 21.519531 19.808594l-24.824219 25.894531c-54.777343 19.375-94.132812 71.683594-94.132812 133.023438 0 20.269531 16.492188 36.761718 36.765625 36.761718h290.546875c16.351562 0 30.246094-10.738281 35.011719-25.53125l1.871093.6875c6.773438 2.46875 14.296876-1.039062 16.765626-7.820312l8.777343-24.128906c2.035157.082031 4.050781.082031 6.085938 0l8.785156 24.128906c2.507813 6.875 10.074219 10.277344 16.753906 7.820312l23.960938-8.714843c6.777343-2.46875 10.285156-9.984375 7.816406-16.765625l-8.785156-24.128906c1.601562-1.25 3.152343-2.550782 4.664062-3.910157l22.238281 12.835938c6.292969 3.617187 14.257813 1.460937 17.863282-4.785157l12.742187-22.074218c3.628907-6.257813 1.464844-14.273438-4.785156-17.863282l-22.226563-12.835937c.425782-1.988281.777344-3.992187 1.050782-5.996094l25.285156-4.464843c3.4375-.601563 6.441406-2.519532 8.445312-5.378907 2.003907-2.863281 2.769532-6.328125 2.164063-9.761719zm-439.980469-126.011718c-9.078125-5.25-15.195312-15.070313-15.195312-26.304688s6.117187-21.058594 15.195312-26.308594zm235.636719-26.296875c0 12.804687-7.957031 23.789062-19.191406 28.25.019531-.632813.007812 2.492187.007812-56.5 11.234375 4.464843 19.183594 15.445312 19.183594 28.25zm-214.792969-74c-19.816406 0-19.332031.050781-20.84375-.113281-5.855468-.613282-9.351562-3.695313-9.351562-5.460938v-81.898438c0-18.1875 23.890625-33.550781 52.148437-33.550781 167.671875.007813 159.984375-.019531 160.539063.019531v8.070313c0 35.523437-77.125 113.707031-182.492188 112.933594zm171.78125-5.894531c-12.410156 0-22.496094-10.085938-22.496094-22.5v-9.730469c18.457032-15.285157 38.800782-37.429688 45.871094-60.117188 3.507813 3.96875 5.632813 9.175781 5.632813 14.867188v77.480469zm-31.523437 194.308593c10.042969 10.480469 17.414062 18.175781 25.367187 26.46875-.199218.652344-22.082031 69.589844-22.386718 70.546875-1.4375 1.914063-4.875 2.660156-7.433594 1.027344-5.28125-3.425781-37.058594-24.011719-38.589844-24.996094 1.53125-2.601562 42.941406-72.875 43.042969-73.046875zm-32.785157 97.691407v16.320312c0 1.710938-1.441406 3.304688-3.304687 3.304688h-29.582031c-1.863282 0-3.304688-1.59375-3.304688-3.304688v-16.320312l18.097656-11.71875zm9.046876-87.171876c-6.164063 10.457032-6.597657 11.164063-27.140626 46.054688-21.257812-36.101562-20.523437-34.839844-25.734374-43.667969 19.75 8.039063 29.882812 8.492188 52.875-2.386719zm-87.734376-.382812v-.011719l9.714844-10.125c3.160156 5.359375 13.507813 22.933594 14.082032 23.898438v.011719l.011718.007812c0 .011719.011719.019531.019532.042969 0 .007812.011718.007812.011718.019531.007813.019531.027344.039062.039063.070312.058593.101563.109375.179688.152343.242188v.007812c.007813.011719.007813.011719.007813.011719.0625.109375.089844.160157.101563.171875 1.351562 2.285156 7.171874 12.167969 28.613281 48.5625-42.546875 27.554688-40.128907 26.496094-43.253907 25.699219-1.167968-.289063-2.144531-.90625-2.769531-1.730469-5.320312-16.746094-19.894531-62.6875-22.386719-70.546875zm21.8125 161.332031h-56.550781v-49.820312c0-4.171875-3.375-7.554688-7.554687-7.554688-4.171875 0-7.558594 3.382813-7.558594 7.554688v49.820312h-34.828125c-11.941406 0-21.652344-9.710937-21.652344-21.648437 0-52.140625 31.847657-96.984375 77.113281-116.089844 23.175782 72.804688 21.714844 68.785156 22.410157 70.09375 5.582031 10.175781 19.3125 13.300781 29.1875 6.902344l5.007812-3.242188c.503907 3.050782-2.429687 14.132813 7.605469 21.417969zm15.808594 0 12.101563-39.039062h22.417969l12.492187 39.039062zm168.246094 0h-34.832031v-49.820312c0-4.171875-3.382813-7.554688-7.554688-7.554688-4.179687 0-7.554687 3.382813-7.554687 7.554688v49.820312h-55.425782l-13.753906-42.980469c4.292969-3.375 7.054688-8.601562 7.054688-14.476562v-6.527344l5.007812 3.242188c11.554688 7.484375 26.699219 1.167968 29.761719-8.242188l21.863281-68.851562c.824219.339844 1.640625.703125 2.457032 1.066406l-.5625 3.195312c-1.25 7.089844 3.503906 13.890626 10.609374 15.140626l24.070313 4.253906c.460937.410156.914063.835937 1.367187 1.269531.253907 1.652344.546876 3.304687.898438 4.9375l-22.238281 12.835937c-6.277344 3.617188-8.375 11.632813-4.785157 17.863282l12.757813 22.074218c3.59375 6.246094 11.605469 8.390626 17.851563 4.785157l22.246093-12.835938c1.5 1.359375 3.0625 2.660157 4.65625 3.910157l-8.777343 24.128906c-2.472657 6.769531 1 14.273437 7.808593 16.765625l7.859375 2.859375c-2.628906 8.996094-10.953125 15.585937-20.785156 15.585937zm140.347656-127.863281c-3.425781.605469-5.996094 3.464844-6.226562 6.941406-.332032 4.9375-1.191406 9.835938-2.550782 14.550782-.964843 3.332031.472657 6.898437 3.476563 8.632812l25.398437 14.667969-10.707031 18.550781-25.410156-14.671875c-3.011719-1.742187-6.820313-1.195313-9.230469 1.3125-3.425781 3.554687-7.222656 6.75-11.3125 9.5-2.882812 1.933594-4.082031 5.589844-2.894531 8.855469l10.035156 27.566406-20.117187 7.324219-10.035156-27.566407c-1.191407-3.261718-4.445313-5.308593-7.910157-4.9375-4.917969.535157-9.863281.535157-14.78125 0-3.445312-.359374-6.71875 1.675782-7.90625 4.9375l-10.035156 27.566407c.207031.078125-2.792969-1.011719-20.132813-7.324219l.976563-2.679688c8.476563-24.753906 10.496094-25.507812 9.171875-29.730468-1.460938-4.710938-5.074219-3.894532-14.308594-13.511719-2.175781-2.269531-5.480468-2.933594-8.320312-1.753906-.726563.28125.753906-.496094-26.328125 15.113281l-10.699219-18.550781 25.390625-14.667969c3.011719-1.734375 4.453125-5.300781 3.484375-8.632812-1.289062-4.382813-2.269531-9.792969-2.550781-14.550782-.484375-7.269531-8.257813-7.140625-8.8125-7.394531l-26.316407-4.644531c-.003906.019531.003907-.027344.03125-.191406-.011718.074218-.027343.148437-.03125.179687.019532-.113281.035157-.1875.042969-.238281 0 .003906-.003906.011718-.003906.019531.164063-.921875.90625-5.132813 3.6875-20.867187l28.875 5.097656c3.4375.605468 6.820313-1.210938 8.230469-4.382813 1.984375-4.503906 4.472656-8.804687 7.386718-12.785156 2.054688-2.8125 1.933594-6.660156-.304687-9.320313l-18.859375-22.476562 16.402344-13.773438 18.859375 22.46875c2.230469 2.667969 5.996093 3.464844 9.121093 1.921876 4.421876-2.175782 9.085938-3.878907 13.871094-5.046876 3.386719-.824218 5.753906-3.859374 5.753906-7.34375v-29.328124h21.421876v29.328124c0 3.484376 2.375 6.519532 5.75 7.34375 4.785156 1.167969 9.460937 2.871094 13.875 5.046876 3.121093 1.542968 6.890624.746093 9.128906-1.921876l18.847656-22.46875 16.414062 13.773438-18.859374 22.476562c-2.238282 2.660157-2.367188 6.507813-.3125 9.320313 2.921874 3.980469 5.410156 8.28125 7.394531 12.785156 1.410156 3.171875 4.796875 4.976563 8.222656 4.382813l28.882813-5.097656 3.71875 21.097656zm0 0"/><path d="m392.78125 308.808594c-33.722656 0-61.167969 27.445312-61.167969 61.167968 0 33.738282 27.445313 61.175782 61.167969 61.175782 33.730469 0 61.175781-27.445313 61.175781-61.175782 0-33.722656-27.445312-61.167968-61.175781-61.167968zm0 107.230468c-25.390625 0-46.054688-20.664062-46.054688-46.0625 0-25.390624 20.664063-46.054687 46.054688-46.054687 25.398438 0 46.0625 20.664063 46.0625 46.054687 0 25.398438-20.664062 46.0625-46.0625 46.0625zm0 0"/><path d="m359.722656 369.976562c0 8.847657 3.4375 17.148438 9.671875 23.394532 20.777344 20.773437 56.453125 5.964844 56.453125-23.394532 0-8.835937-3.4375-17.148437-9.671875-23.382812-20.828125-20.796875-56.453125-5.921875-56.453125 23.382812zm33.058594 17.964844c-15.964844 0-23.925781-19.429687-12.695312-30.660156 6.960937-6.980469 18.34375-7.054688 25.398437 0 11.167969 11.167969 3.386719 30.660156-12.703125 30.660156zm0 0"/><path d="m221.703125 210.847656c0 6.59375 5.335937 11.929688 11.929687 11.929688 6.578126 0 11.917969-5.339844 11.917969-11.929688 0-6.578125-5.339843-11.917968-11.917969-11.917968-6.578124 0-11.929687 5.335937-11.929687 11.917968zm0 0"/><path d="m252.765625 180.542969c1.25.785156 2.640625 1.160156 4.019531 1.160156 7.335938 0 10.5625-9.613281 4.03125-13.957031-16.089844-10.113282-41.914062-5.117188-44.804687-4.511719-4.082031.847656-6.691407 4.847656-5.855469 8.925781.847656 4.082032 4.847656 6.710938 8.9375 5.863282 4.855469-.996094 17.019531-2.46875 26.527344-.261719 2.660156.605469 5.121094 1.503906 7.144531 2.78125zm0 0"/><path d="m130.441406 198.929688c-6.578125 0-11.917968 5.339843-11.917968 11.917968 0 7.039063 6.113281 12.367188 12.351562 11.921875 6.390625-.222656 11.496094-5.472656 11.496094-11.921875 0-6.386718-5.035156-11.605468-11.363282-11.898437-.191406-.019531-.375-.019531-.566406-.019531zm0 0"/><path d="m148.066406 163.234375c-2.894531-.605469-28.726562-5.601563-44.804687 4.511719-6.542969 4.347656-3.296875 13.957031 4.027343 13.957031 4.027344 0 3.820313-2.257813 11.175782-3.949219 9.511718-2.199218 21.652344-.726562 26.515625.269532 4.070312.847656 8.082031-1.761719 8.9375-5.851563.847656-4.082031-1.773438-8.089844-5.851563-8.9375zm0 0"/><path d="m197.421875 258.070312c0 4.878907-2.277344 9.21875-5.824219 12.042969-9.929687 7.941407-24.945312.882813-24.945312-12.042969 0-4.164062-3.386719-7.554687-7.554688-7.554687-15.917968 0-6.082031 38.054687 22.941406 38.054687 23.800782 0 33.65625-25.121093 29.839844-33.570312-3.332031-7.464844-14.457031-4.996094-14.457031 3.070312zm0 0"/></svg>